# xmcd
#
# Track frame offsets:
#	150
#	8981
#	30989
#	51865
#	71314
#	94788
#	117705
#	146443
#	163769
#	187866
#	212625
#	233338
#	262329
#	282795
#	302168
#	327971
#
# Disc length: 4655
#
# Revision: 2
# Processed by: cddbd v1.5.1PL0 Copyright (c) Steve Scherf et al.
# Submitted via: MusiCat 1.1
# Normalized: r1:TDELIM( - )
#
DISCID=dc122d10
DTITLE=Rage - XIII
DYEAR=1900
DGENRE=
TTITLE0=Rage - Overture
TTITLE1=Rage - From the cradle to the grave
TTITLE2=Rage - Days of December
TTITLE3=Rage - Changes - Sign of heaven
TTITLE4=Rage - Changes - Incomplete
TTITLE5=Rage - Changes - Turn the page
TTITLE6=Rage - Heartblood
TTITLE7=Rage - Over and over
TTITLE8=Rage - In vain
TTITLE9=Rage - Immortal sin
TTITLE10=Rage - Paint it black
TTITLE11=Rage - Just alone
TTITLE12=Hammerfall - Heading the call
TTITLE13=Hammerfall - Let the hammer fall
TTITLE14=Hammerfall - Dreamland
TTITLE15=Hammerfall - Living in victory
EXTD=\n\n
EXTT0=
EXTT1=
EXTT2=
EXTT3=
EXTT4=
EXTT5=
EXTT6=
EXTT7=
EXTT8=
EXTT9=
EXTT10=
EXTT11=
EXTT12=
EXTT13=
EXTT14=
EXTT15=
PLAYORDER=
